<svg width="120" height="40" fill="none" xmlns="http://www.w3.org/2000/svg"><g clip-path="url(#clip0_10171_380)"><rect width="120" height="40" rx="2" fill="#fff"/><path d="M0 0h95.439v40H0V0z" fill="#fff"/><path d="M0 0h10.612v40H0V0z" fill="#EF4536"/><path d="M21.088 34.669H19.02V18.536h5.54c1.401 0 2.536.466 3.537 1.333 1.001.933 1.468 2.067 1.468 3.467s-.533 2.533-1.468 3.466c-1 .934-2.202 1.334-3.537 1.334h-3.404v6.533h-.067zm0-8.467h3.471c.868 0 1.602-.266 2.069-.866.534-.6.8-1.2.8-1.934 0-.733-.266-1.333-.8-1.933-.534-.6-1.201-.867-2.069-.867h-3.47v5.6zm13.349 8.867c-1.202 0-2.136-.333-2.937-1-.8-.667-1.201-1.6-1.201-2.667 0-1.2.467-2.133 1.401-2.8.935-.666 2.07-1 3.47-1 1.202 0 2.203.2 3.004.667v-.333c0-.8-.267-1.467-.868-1.934-.534-.466-1.268-.733-2.069-.733-.6 0-1.134.133-1.668.4a2.238 2.238 0 00-1.001 1.2l-1.802-.867c.267-.666.734-1.266 1.535-1.866.734-.534 1.735-.867 3.003-.867 1.402 0 2.603.4 3.537 1.267.935.8 1.402 2 1.402 3.466v6.667H38.24v-1.533h-.067c-.934 1.266-2.136 1.933-3.737 1.933zm.333-1.933c.868 0 1.669-.334 2.336-.934.667-.666 1.068-1.4 1.068-2.266-.6-.467-1.468-.734-2.67-.734-1 0-1.735.2-2.269.667s-.8.933-.8 1.533c0 .534.2 1 .667 1.267a3.015 3.015 0 001.668.467zm9.744-9.467v1.8h.067c.267-.667.667-1.133 1.335-1.533.667-.4 1.401-.534 2.136-.534.2 0 .467 0 .734.067v2c-.267 0-.534-.067-.868-.067-1.001 0-1.802.267-2.47.867-.667.6-.934 1.4-.934 2.4v6h-2.069v-11h2.07zm11.346 11.2c-1.134 0-2.069-.333-2.67-.933-.6-.6-.934-1.467-.934-2.6v-5.8h-1.935v-1.867h1.935v-3.4h2.07v3.4h2.736v1.867h-2.737v5.666c0 1.2.467 1.8 1.468 1.8.4 0 .668-.066.935-.2l.734 1.8c-.334.2-.934.267-1.602.267zm5.34-11.2v1.533h.066c.334-.533.801-1 1.402-1.333.667-.4 1.334-.533 2.069-.533 1.401 0 2.402.4 3.136 1.266.735.867 1.068 2 1.068 3.4v6.667h-2.069v-6.467c0-2.066-.934-3.066-2.736-3.066-.868 0-1.535.333-2.069 1-.534.666-.8 1.466-.8 2.4v6.133h-2.07v-11H61.2zm15.216 11.4c-1.668 0-3.003-.533-4.071-1.667-1.068-1.133-1.602-2.533-1.602-4.2 0-1.6.534-3 1.535-4.133s2.336-1.733 3.871-1.733c1.669 0 2.937.533 3.938 1.6 1.001 1.066 1.468 2.466 1.468 4.266v.4h-8.743c.067 1.134.4 2 1.135 2.667.667.667 1.468 1 2.402 1 1.469 0 2.47-.6 3.004-1.867l1.869.8c-.334.867-.935 1.6-1.802 2.134-.735.4-1.802.733-3.004.733zm3.004-7.2c-.067-.6-.334-1.2-.868-1.8-.534-.6-1.335-.867-2.403-.867-.8 0-1.401.267-2.002.734-.6.466-.934 1.133-1.135 1.933h6.407zm6.206 6.8h-2.069v-11h2.003v1.8h.066c.2-.6.668-1.067 1.268-1.467.668-.4 1.268-.6 1.936-.6.6 0 1.134.067 1.535.267l-.801 1.933c-.267-.133-.667-.133-1.135-.133-.734 0-1.401.267-2.002.867-.6.6-.867 1.4-.867 2.333v6h.066z" fill="#727473"/><path d="M23.759 14.868c-2.736 0-5.006-2.2-5.006-4.934 0-2.733 2.27-4.933 5.006-4.933 1.535 0 2.603.6 3.404 1.333l-.935.934c-.6-.534-1.334-.934-2.469-.934-2.002 0-3.537 1.6-3.537 3.6s1.535 3.6 3.537 3.6c1.268 0 2.002-.533 2.536-1 .4-.4.668-.933.734-1.733h-3.27v-1.4h4.538c.067.267.067.6.067.867 0 1-.267 2.266-1.201 3.133-.801 1-1.936 1.467-3.404 1.467z" fill="#587FC0"/><path d="M35.638 11.665c0 1.867-1.469 3.2-3.204 3.2s-3.203-1.333-3.203-3.2c0-1.866 1.468-3.2 3.203-3.2 1.735 0 3.204 1.334 3.204 3.2zm-1.402 0c0-1.133-.868-1.933-1.802-1.933s-1.802.8-1.802 1.933c0 1.134.868 1.934 1.802 1.934s1.802-.8 1.802-1.934z" fill="#DB3336"/><path d="M42.915 11.665c0 1.867-1.468 3.2-3.204 3.2-1.735 0-3.203-1.333-3.203-3.2 0-1.866 1.468-3.2 3.203-3.2 1.736 0 3.204 1.334 3.204 3.2zm-1.402 0c0-1.133-.867-1.933-1.802-1.933-.934 0-1.802.8-1.802 1.933 0 1.134.868 1.934 1.802 1.934.935 0 1.802-.8 1.802-1.934z" fill="#FFC114"/><path d="M49.855 8.67v5.733c0 2.333-1.401 3.333-3.003 3.333-1.535 0-2.47-1.067-2.803-1.867l1.201-.533c.2.533.734 1.133 1.602 1.133 1.068 0 1.735-.666 1.735-1.866v-.467h-.067c-.333.4-.934.733-1.668.733-1.602 0-3.07-1.4-3.07-3.2 0-1.8 1.468-3.2 3.07-3.2.734 0 1.335.334 1.668.734h.067v-.534h1.268zm-1.268 3c0-1.134-.734-1.934-1.735-1.934-.935 0-1.802.8-1.802 1.933 0 1.134.8 1.934 1.802 1.934 1 0 1.735-.8 1.735-1.934z" fill="#587FC0"/><path d="M52.593 5.267v9.4h-1.402v-9.4h1.402z" fill="#32B355"/><path d="M58.332 12.736l1.067.733c-.333.534-1.2 1.4-2.67 1.4-1.801 0-3.136-1.4-3.136-3.2 0-1.866 1.335-3.2 3.003-3.2 1.669 0 2.47 1.334 2.737 2l.133.334-4.271 1.733c.334.667.867 1 1.535 1 .734.067 1.201-.267 1.602-.8zm-3.404-1.2l2.87-1.2c-.134-.4-.601-.667-1.202-.667-.667.067-1.668.667-1.668 1.867z" fill="#DB3336"/><path d="M7.341 33.534v.533h-4.07v-1.4c0-.333.133-.667.333-.867.2-.266.534-.4.867-.4.334 0 .601.134.868.4.2.267.334.534.334.867v.867H7.34zm-2.135 0v-.867c0-.2-.067-.4-.2-.533-.2-.134-.334-.2-.535-.2-.2 0-.333.066-.467.2a.756.756 0 00-.2.533v.867h1.402zm2.135-3.8h-4.07v-1.4c0-.334.133-.667.333-.867.2-.267.534-.4.867-.4.267 0 .534.067.735.267.2.2.333.4.4.666l1.669-1.133v.6l-1.602 1.2v.6H7.34v.467zm-2.135-.467V28.4c0-.2-.067-.4-.2-.533a.758.758 0 00-.535-.2c-.2 0-.333.067-.467.2a.757.757 0 00-.2.533v.867h1.402zM3.804 23v1.867h1.268V23.2h.467v1.667h1.268V23h.534v2.334h-4.07V23h.533zm3.537-1.8h-4.07v-.533l2.469-1.4-2.47-1.4v-.533h4.071v.533h-3.07l2.203 1.267v.333l-2.203 1.2h3.07v.533zm0-5.8h-4.07v-.533h4.07v.533zm-3.537-4.866V12.4h1.268v-1.666h.467V12.4h1.268v-1.866h.534v2.333h-4.07v-2.333h.533zm3.537-1.8h-4.07v-1.4c0-.334.133-.667.333-.867.2-.267.534-.4.867-.4.267 0 .534.067.735.267.2.2.333.4.4.666l1.735-1.066v.6L5.673 7.6v.6H7.34v.534zM5.206 8.2v-.866c0-.2-.067-.4-.2-.534-.134-.066-.334-.2-.535-.2a.721.721 0 00-.467.2.756.756 0 00-.2.534V8.2h1.402z" fill="#fff"/></g><defs><clipPath id="clip0_10171_380"><rect width="120" height="40" rx="2" fill="#fff"/></clipPath></defs></svg>