<svg width="445" height="889" fill="none" xmlns="http://www.w3.org/2000/svg"><g opacity=".4" stroke="#00F0B5"><path d="M59.067 669.034c7.01-3.094 14.278-6.152 21.658-9.257 23.828-10.027 48.82-20.542 70.005-34.328 27.724-18.041 48.829-41.622 52.188-76.92 3.26-34.26-15.88-58.905-40.514-82.37-6.156-5.864-12.648-11.647-19.212-17.486l-.466-.415c-6.41-5.702-12.883-11.46-19.162-17.391-12.862-12.149-24.934-25.045-34.034-39.734-9.976-16.103-16.759-35.01-22.368-54.617-2.805-9.805-5.319-19.793-7.791-29.698l-.487-1.951c-2.306-9.245-4.59-18.402-7.059-27.266-10.581-37.997-24.49-70.357-57.627-80.95-35.387-11.313-74.37-2.195-108.687 18.651-34.314 20.845-63.901 53.382-80.47 88.781-14.282 30.513-7.148 62.241 5.351 95.105 3.772 9.919 8.021 19.913 12.31 30.001 2.821 6.635 5.659 13.31 8.39 20.032 6.875 16.921 13.053 34.089 16.484 51.464 3.29 16.663 3.902 34.389 3.763 52.209-.055 7.066-.228 14.14-.4 21.168-.263 10.723-.522 21.342-.358 31.676.546 34.206 5.751 64.908 30.735 84.774 26.013 20.683 55.926 21.737 86.631 14.394 25.034-5.987 50.523-17.538 74.779-28.53 5.517-2.5 10.971-4.971 16.341-7.342z"/><path d="M46.589 621.209c5.522-2.438 11.247-4.847 17.06-7.292 18.759-7.894 38.423-16.168 55.095-27.017 21.813-14.194 38.402-32.736 41.042-60.484 2.562-26.922-12.474-46.294-31.865-64.765-4.845-4.616-9.955-9.168-15.123-13.766l-.367-.326c-5.046-4.489-10.144-9.024-15.09-13.695-10.13-9.568-19.642-19.729-26.814-31.306-7.863-12.691-13.206-27.589-17.623-43.03-2.21-7.722-4.189-15.587-6.135-23.386l-.384-1.536c-1.816-7.279-3.614-14.487-5.557-21.465-8.332-29.92-19.27-55.34-45.3-63.661-27.823-8.894-58.483-1.729-85.487 14.675-27 16.402-50.28 42.004-63.317 69.856-11.226 23.983-5.623 48.927 4.216 74.797 2.97 7.809 6.313 15.673 9.689 23.614 2.221 5.224 4.456 10.481 6.608 15.778 5.414 13.324 10.281 26.848 12.985 40.539 2.592 13.13 3.074 27.095 2.964 41.128-.043 5.567-.18 11.138-.315 16.672-.206 8.44-.411 16.796-.281 24.931.429 26.929 4.528 51.056 24.158 66.664 20.444 16.256 43.957 17.09 68.116 11.312 19.7-4.711 39.756-13.8 58.854-22.454 4.345-1.969 8.64-3.916 12.87-5.783z"/><path d="M37.572 586.654c4.448-1.963 9.058-3.903 13.738-5.872 15.096-6.352 30.912-13.007 44.322-21.734 17.543-11.415 30.869-26.316 32.99-48.609 2.057-21.62-10.013-37.183-25.616-52.046-3.898-3.713-8.01-7.376-12.17-11.077l-.296-.263c-4.061-3.613-8.165-7.263-12.146-11.024-8.155-7.703-15.819-15.888-21.598-25.216-6.335-10.226-10.639-22.227-14.195-34.658-1.779-6.216-3.372-12.549-4.939-18.825a2787.6 2787.6 0 01-.308-1.236c-1.462-5.859-2.908-11.659-4.472-17.274-6.707-24.084-15.5-44.49-36.395-51.17-22.357-7.147-47.004-1.391-68.723 11.802-21.715 13.192-40.439 33.783-50.924 56.182-9.017 19.265-4.521 39.308 3.396 60.126 2.39 6.283 5.079 12.609 7.796 18.999 1.787 4.204 3.587 8.437 5.32 12.703 4.358 10.725 8.278 21.617 10.456 32.646 2.088 10.577 2.476 21.825 2.388 33.121-.035 4.485-.145 8.969-.254 13.424-.166 6.79-.33 13.512-.226 20.058.345 21.671 3.645 41.047 19.406 53.579 16.422 13.057 35.31 13.732 54.739 9.085 15.845-3.789 31.977-11.099 47.347-18.064 3.498-1.586 6.957-3.153 10.364-4.657z"/></g></svg>