<svg width="303" height="701" fill="none" xmlns="http://www.w3.org/2000/svg"><g opacity=".4" stroke="#00F0B5"><path d="M-353.158 305.049c-19.76-42.264-25.57-77.452-17.56-105.616 8.002-28.138 29.834-49.383 65.636-63.695 71.776-28.694 138.231-50.343 199.365-64.95C-44.697 56.208 21.535 66.49 93 101.697c71.385 35.168 117.661 97.725 138.806 187.75 10.574 45.015 11.275 84.662 2.137 118.956-9.137 34.289-28.116 63.256-56.955 86.911-57.826 47.43-108.93 86.55-153.316 117.364-44.287 30.746-97.68 43.292-160.212 37.607-31.22-2.839-57.256-13.688-78.135-32.535-20.884-18.851-36.639-45.73-47.243-80.676-21.252-70.043-51.667-147.385-91.24-232.025z"/><path d="M-295.693 313.401c-16.04-34.322-20.752-62.878-14.266-85.721 6.478-22.816 24.165-40.049 53.199-51.659 58.242-23.29 112.164-40.86 161.77-52.711 49.492-11.824 103.221-3.467 161.211 25.135 57.91 28.563 95.462 79.355 112.634 152.456 8.587 36.553 9.162 68.738 1.758 96.573-7.403 27.827-22.789 51.335-46.175 70.53-46.918 38.511-88.383 70.274-124.395 95.29-35.914 24.949-79.22 35.126-129.951 30.498-25.319-2.309-46.431-11.119-63.362-26.416-16.936-15.3-29.72-37.119-38.328-65.492-17.263-56.899-41.962-119.727-74.095-188.483z"/><path d="M-260.406 318.592c-13.75-29.421-17.782-53.888-12.228-73.449 5.547-19.536 20.691-34.298 45.572-44.247 49.935-19.969 96.166-35.032 138.695-45.193C-45.953 145.57.1 152.73 49.81 177.25c49.63 24.479 81.817 68.01 96.536 130.67 7.361 31.334 7.853 58.918 1.508 82.769-6.344 23.845-19.527 43.988-39.568 60.437-40.227 33.019-75.778 60.252-106.654 81.701-30.778 21.381-67.891 30.104-111.375 26.137-21.696-1.979-39.783-9.528-54.287-22.632-14.509-13.108-25.465-31.803-32.843-56.122-14.802-48.79-35.982-102.663-63.534-161.618z"/></g></svg>