<svg width="690" height="1367" fill="none" xmlns="http://www.w3.org/2000/svg"><g opacity=".4" stroke="#00F0B5"><path d="M389.48 1050.24c13.333 6.74 26.938 13.92 40.757 21.21 44.645 23.56 91.516 48.29 138.602 63.21 61.632 19.53 123.522 22.22 181.125-16.53 55.944-37.63 69.456-97.24 74.374-163.507 1.229-16.563 1.921-33.53 2.607-50.668l.049-1.214c.669-16.737 1.345-33.631 2.522-50.446 2.411-34.441 6.925-68.582 17.809-100.448 11.931-34.934 32.043-68.54 54.684-101.273 11.321-16.367 23.28-32.522 35.17-48.518l2.345-3.156c11.098-14.926 22.093-29.716 32.42-44.422 44.246-63.009 76.036-124.275 50.886-187.675-26.811-67.592-88.977-115.218-163.016-141.233-74.036-26.013-159.875-30.39-233.917-11.544-63.938 16.275-103.079 66.483-137.22 126.061-10.303 17.98-20.137 36.787-30.059 55.762-6.521 12.471-13.08 25.015-19.836 37.445-17.022 31.321-35.269 61.872-57.219 88.53-21.045 25.559-47.013 48.408-74.077 70.258-10.72 8.654-21.605 17.148-32.427 25.591-16.517 12.887-32.884 25.657-48.283 38.705-50.966 43.186-91.026 89.187-90.071 151.736.993 65.08 36.564 111.66 85.731 148.961 40.075 30.404 89.121 54.595 135.749 77.605 10.601 5.23 21.078 10.4 31.295 15.56z"/><path d="M446.216 972.187c10.501 5.309 21.216 10.962 32.097 16.704 35.15 18.549 72.041 38.009 109.104 49.759 48.509 15.37 97.201 17.48 142.518-13 44.003-29.605 54.639-76.494 58.511-128.66.968-13.038 1.512-26.395 2.052-39.888l.039-.958c.527-13.177 1.059-26.479 1.986-39.72 1.898-27.121 5.453-54.012 14.027-79.114 9.399-27.519 25.24-53.989 43.068-79.763 8.915-12.888 18.332-25.609 27.693-38.204l1.846-2.483c8.738-11.753 17.395-23.396 25.524-34.974 34.836-49.612 59.828-97.804 40.052-147.662-21.093-53.18-70.009-90.661-128.285-111.138-58.273-20.474-125.837-23.919-184.112-9.086-50.298 12.802-81.096 52.299-107.974 99.203-8.111 14.155-15.852 28.959-23.663 43.896-5.134 9.82-10.299 19.697-15.62 29.488-13.404 24.662-27.774 48.723-45.062 69.72-16.577 20.132-37.029 38.127-58.339 55.332-8.444 6.817-17.016 13.504-25.536 20.152-13.003 10.145-25.885 20.197-38.009 30.469-40.125 34.001-71.63 70.19-70.879 119.384.781 51.195 28.76 87.841 67.458 117.2 31.543 23.931 70.148 42.976 106.859 61.087 8.348 4.118 16.598 8.188 24.645 12.256z"/><path d="M487.211 915.793c8.455 4.274 17.081 8.825 25.84 13.447 28.289 14.926 57.97 30.586 87.791 40.037 39.027 12.368 78.183 14.059 114.623-10.453 35.375-23.796 43.933-61.492 47.049-103.473.779-10.492 1.217-21.241 1.652-32.101l.03-.766c.425-10.607.853-21.316 1.599-31.976 1.528-21.831 4.39-43.485 11.295-63.701 7.569-22.161 20.325-43.474 34.676-64.221 7.176-10.375 14.756-20.614 22.29-30.751l1.488-2.001c7.032-9.458 13.998-18.828 20.54-28.144 28.039-39.933 48.12-78.678 32.225-118.752-16.964-42.767-56.305-72.918-103.192-89.393-46.884-16.473-101.244-19.244-148.128-7.311-40.441 10.294-65.212 42.051-86.842 79.798-6.528 11.392-12.756 23.303-19.042 35.323-4.132 7.904-8.29 15.855-12.574 23.738-10.789 19.851-22.358 39.223-36.279 56.129-13.348 16.212-29.815 30.7-46.968 44.548-6.799 5.489-13.699 10.873-20.557 16.223-10.463 8.164-20.828 16.251-30.585 24.519-32.293 27.363-57.616 56.464-57.012 96.009.628 41.161 23.121 70.631 54.254 94.251 25.38 19.254 56.44 34.577 85.987 49.154 6.72 3.315 13.361 6.591 19.84 9.867z"/></g></svg>