<svg width="514" height="558" fill="none" xmlns="http://www.w3.org/2000/svg"><g opacity=".4" stroke="#00F0B5"><path d="M-134.7 251.204c-5.308 7.252-10.902 14.621-16.582 22.105-18.342 24.165-37.585 49.518-51.039 75.962-17.608 34.607-25.243 70.981-7.943 108.864 16.795 36.774 50.738 50.61 89.543 60.017 9.697 2.351 19.688 4.423 29.785 6.509l.72.149c9.858 2.037 19.812 4.093 29.67 6.439 20.196 4.806 40.02 10.833 57.874 20.423 19.572 10.512 37.547 25.747 54.745 42.386 8.6 8.321 17.01 16.998 25.332 25.616l1.639 1.698c7.765 8.045 15.457 16.014 23.166 23.577 33.035 32.416 66.18 57.189 106.126 48.514 42.637-9.26 76.932-41.408 99.598-82.736 22.663-41.325 33.661-91.763 29.744-137.48-3.379-39.427-29.261-67.514-61.241-93.592-9.651-7.871-19.834-15.541-30.111-23.281-6.757-5.09-13.556-10.211-20.271-15.44-16.91-13.166-33.252-26.99-46.923-42.634-13.109-15-24.122-32.653-34.43-50.847-4.086-7.213-8.057-14.503-12.004-21.748-6.022-11.054-11.987-22.004-18.215-32.413-20.614-34.451-43.927-62.64-81.015-68.188-38.607-5.776-69.657 10.712-96.572 36.192-21.942 20.772-41.083 47.468-59.294 72.865-4.141 5.777-8.235 11.486-12.302 17.043z"/><path d="M-93.968 292.499c-4.182 5.713-8.588 11.518-13.061 17.411-14.44 19.025-29.583 38.975-40.172 59.787-13.855 27.232-19.854 55.836-6.251 85.622 13.201 28.906 39.881 39.789 70.428 47.195 7.633 1.85 15.498 3.481 23.447 5.124l.566.117c7.762 1.603 15.601 3.223 23.365 5.071 15.904 3.784 31.523 8.533 45.593 16.089 15.423 8.284 29.584 20.287 43.127 33.39 6.772 6.553 13.396 13.386 19.947 20.171l1.29 1.337c6.115 6.334 12.17 12.608 18.238 18.562 26.013 25.524 52.07 44.985 83.459 38.168 33.53-7.282 60.51-32.567 78.346-65.089 17.835-32.519 26.49-72.211 23.407-108.184-2.657-30.998-23.004-53.088-48.179-73.617-7.598-6.196-15.611-12.232-23.701-18.325-5.321-4.008-10.675-8.04-15.965-12.16-13.315-10.368-26.188-21.257-36.959-33.581-10.328-11.819-19.004-25.726-27.121-40.052-3.219-5.682-6.346-11.423-9.454-17.128-4.74-8.702-9.434-17.319-14.337-25.513-16.229-27.123-34.561-49.276-63.71-53.637-30.351-4.54-54.767 8.419-75.946 28.468-17.267 16.347-32.33 37.356-46.668 57.352-3.261 4.548-6.486 9.045-9.69 13.422z"/><path d="M-64.54 322.333c-3.369 4.602-6.916 9.275-10.517 14.02-11.622 15.311-23.802 31.358-32.32 48.1-11.144 21.904-15.961 44.893-5.029 68.83 10.604 23.221 32.036 31.971 56.617 37.929 6.142 1.489 12.47 2.802 18.868 4.124l.454.094c6.248 1.291 12.559 2.594 18.81 4.082 12.804 3.047 25.384 6.871 36.72 12.959 12.424 6.673 23.83 16.342 34.732 26.89 5.452 5.275 10.784 10.776 16.057 16.237l1.04 1.077c4.92 5.098 9.793 10.145 14.675 14.936 20.938 20.546 41.875 36.168 67.081 30.694 26.949-5.853 48.645-26.179 62.992-52.339 14.346-26.157 21.307-58.084 18.827-87.018-2.134-24.907-18.482-42.663-38.74-59.183-6.115-4.987-12.561-9.842-19.071-14.745-4.282-3.225-8.592-6.472-12.853-9.789-10.719-8.346-21.085-17.115-29.76-27.041-8.32-9.52-15.306-20.72-21.84-32.252-2.592-4.577-5.11-9.199-7.611-13.79-3.815-7.002-7.59-13.934-11.536-20.528-13.06-21.827-27.795-39.62-51.207-43.122-24.386-3.648-44.008 6.76-61.042 22.886-13.89 13.15-26.007 30.049-37.547 46.142a1372.847 1372.847 0 01-7.8 10.807z"/></g></svg>