<svg width="171" height="427" fill="none" xmlns="http://www.w3.org/2000/svg"><g opacity=".4" stroke="#00F0B5"><path d="M83.503 337.457c-25.621-10.413-42.287-23.356-50.128-38.777-7.828-15.398-6.913-33.377 2.875-54.005 19.656-41.423 39.836-77.633 60.54-108.633 20.638-30.903 53.557-53.116 98.818-66.606 45.174-13.466 90.475-4.927 135.938 25.689 22.735 15.309 39.001 32.254 48.836 50.824 9.831 18.564 13.249 38.779 10.245 60.662-6.033 43.953-12.492 81.578-19.377 112.878-6.859 31.184-25 58.136-54.47 80.856-14.698 11.331-30.36 17.092-46.996 17.311-16.643.219-34.302-5.108-52.985-16.024-37.504-21.912-81.937-43.303-133.296-64.175z"/><path d="M111.875 317.917c-20.8-8.457-34.314-18.957-40.671-31.449-6.345-12.467-5.616-27.029 2.317-43.752 15.946-33.614 32.319-62.995 49.117-88.146 16.733-25.055 43.436-43.064 80.17-53.994 36.648-10.905 73.408-3.967 110.318 20.887 18.458 12.428 31.661 26.178 39.644 41.238 7.98 15.053 10.759 31.443 8.33 49.186-4.884 35.674-10.115 66.21-15.695 91.612-5.553 25.284-20.261 47.137-44.17 65.558-11.917 9.182-24.614 13.844-38.101 14.016-13.493.172-27.818-4.151-42.983-13.012-30.467-17.802-66.56-35.183-108.276-52.144z"/><path d="M129.323 305.946c-17.827-7.248-29.396-16.243-34.836-26.931-5.427-10.665-4.808-23.126 1.988-37.451 13.671-28.819 27.708-54.008 42.108-75.57 14.336-21.465 37.216-36.898 68.701-46.266 31.399-9.344 62.896-3.401 94.529 17.899 15.819 10.652 27.13 22.433 33.968 35.333 6.835 12.893 9.216 26.931 7.135 42.13-4.187 30.586-8.673 56.767-13.456 78.544-4.758 21.661-17.357 40.384-37.846 56.17-10.208 7.864-21.08 11.856-32.626 12.003-11.553.147-23.823-3.555-36.818-11.148-26.127-15.265-57.077-30.169-92.847-44.713z"/></g></svg>