<svg width="591" height="526" fill="none" xmlns="http://www.w3.org/2000/svg"><path d="M73.691 305.62l81.57 73.306L191.464 526l59.017-14.326-9.886-10.534s-2.27-221.18-98.044-256.695" fill="#B3B7BC"/><rect x="28.629" y="303.758" width="92.02" height="33.109" rx="16.555" fill="#00F0B5"/><path d="M104.148 336.867h-59.02" stroke="#1E212C" stroke-width="1.5" stroke-linecap="round" stroke-linejoin="round"/><path d="M79.387 63.77v27.264l33.663 8.302v-46.01l-33.663-8.302V63.77z" fill="#D7DADD"/><path d="M83.252 77.611a1.365 1.365 0 00.815 2.192c1.884.658 5.248-2.821 7.537-.448 0 0 .905-2.868 7-.381 6.096 2.487 4.416-1.936 4.416-1.936" stroke="#fff" stroke-width="1.5" stroke-linecap="round" stroke-linejoin="round"/><path d="M98.404 73.203c.497 0 .9-.405.9-.903a.902.902 0 00-.9-.903c-.497 0-.9.404-.9.903 0 .498.403.903.9.903zm-13.824 0a.9.9 0 00.9-.903.901.901 0 00-.9-.903.902.902 0 000 1.806z" fill="#1E212C"/><path d="M88.633 77.687V63.77h-6.95m18.414 0h-6.949" stroke="#1E212C" stroke-width="1.5" stroke-linecap="round" stroke-linejoin="round"/><path d="M110.836 70.9v4.834c2.598 0 4.705-2.114 4.705-4.72 0-.145-.007-.289-.02-.43-.263-2.931-4.685-2.626-4.685.317z" fill="#E5E8ED"/><path d="M110.836 75.734a4.713 4.713 0 004.705-4.72m-13.287 25.659l10.796 2.663M88.637 77.698l3.039.75" stroke="#1E212C" stroke-width="1.5" stroke-linecap="round" stroke-linejoin="round"/><path d="M79.387 74.646s-7.822 16.766 4.291 22.073c12.113 5.306 29.399-8.085 27.155-23.516M78.129 56.287s2.686 4.997 12.026 5.204V58.41a25.094 25.094 0 0013.782 3.714v-2.44s5.817 6.555 1.163 11.714" stroke="#fff" stroke-width="1.5" stroke-linecap="round" stroke-linejoin="round"/><path d="M92.313 83.072a3.542 3.542 0 003.535-3.548" stroke="#1E212C" stroke-width="1.5" stroke-linecap="round" stroke-linejoin="round"/><path d="M79.391 69.923s-13.6-23.558 1.217-26.424c14.817-2.865 24.971 3.82 24.971 3.82s22.408 4.561 7.476 21.223" stroke="#fff" stroke-width="1.5" stroke-linecap="round" stroke-linejoin="round"/><path d="M51.164 148.158v73.753l104.137 25.68V165.45c0-29.125-19.818-54.488-48.009-61.44a45.199 45.199 0 00-38.772 8.37c-10.956 8.618-17.356 21.811-17.356 35.778z" fill="#00F0B5"/><path d="M51.169 221.911s-18.095 125.78 115.176 105.726l.635 105.726h64.464l-9.887-8.629s57.116-157.906-66.251-177.143" fill="#D7DADD"/><path d="M166.976 433.362h64.464M51.169 221.911s-18.095 125.78 115.176 105.726l.635 105.726" stroke="#1E212C" stroke-width="1.5" stroke-linecap="round" stroke-linejoin="round"/><path d="M1 433.139h154.257M74.69 336.754v96.199m-.999-324.094s-43.156 24.895-37.656 84.747c5.5 59.851 100.215 22.497 126.051 3.82 0 0 13.987-10.27 10.602-27.028l8.118-5.498-2.192-4.828-96.925 15.061 3.794-23.55" stroke="#fff" stroke-width="1.5" stroke-linecap="round" stroke-linejoin="round"/><path d="M55.11 222.374c7.577 11.722 29.703 16.751 53.583 11.252 21.475-4.945 37.969-16.932 42.328-29.38-24.842 13.536-70.125 29.335-95.911 18.128z" fill="#1E212C"/><path d="M121.227 109.257l64.151 29.591s14.807-58.675 32.154-61.81c17.346-3.135 17.221-1.304 17.221-1.304l-.984 4.605-8.248 2.733s3.857 19.084-6.297 19.602c0 0 31.531 115.52-65.466 100.042" stroke="#fff" stroke-width="1.5" stroke-linecap="round" stroke-linejoin="round"/><path d="M486.796 225.83l-162.163-55.291 20.666-83.615 174.302 6.345-32.805 132.561z" fill="#B3B7BC"/><path d="M398.092 350.233L218.199 224.697l106.434-54.271 162.163 55.404-88.704 124.403z" fill="#E5E8ED"/><path d="M396.797 304.346L264.39 219.201l1.524-.566 131.56 84.578-.677 1.133zm18.632-24.643l-131.277-72.002 1.299-.793 130.995 71.606-1.017 1.189zm18.125-22.036l-128.793-60.276 1.242-.849 128.285 60.048-.734 1.077zm18.465-22.774l-129.414-49.625 1.355-.85 129.075 49.229-1.016 1.246z" fill="#1E212C"/><path d="M270.542 237.443l-1.468-.793 79.219-45.887 1.637.567-79.388 46.113zm33.939 22.66l-1.411-.736 71.426-59.823 1.468.454-71.483 60.105zm35.171 23.793l-1.243-.793 67.135-72.342 1.412.34-67.304 72.795zm36.085 23.906l-.96-.793 67.248-82.086 1.242.454-67.53 82.425z" fill="#1E212C"/><path d="M527.845 88.85a1.14 1.14 0 00-.622-.17l-161.88-5.155h-.057l-19.988 3.4 5.59.226 14.455-2.323 159.961 5.099-5.647 3.342-.395 1.7 7.397-4.532-36.25 147.856-3.5-12.633-159.397-54.271-1.637.85 160.13 54.724 3.67 13.992-92.6 130.578 2.033-22.773-1.016 1.473-2.089 22.943-175.771-131.201-.678-16.315-1.355-.963.791 17.958 177.013 132.39 95.027-133.807 37.097-151.594c.056-.284-.057-.567-.282-.794z" fill="#fff"/><path d="M369.356 156.507a22.24 22.24 0 01-4.408-1.719 20.107 20.107 0 01-3.789-2.501 20.462 20.462 0 01-3.041-2.967 16.676 16.676 0 01-2.207-3.573l11.974-7.499a11.568 11.568 0 002.373 3.916 8.777 8.777 0 004.126 2.565 4.834 4.834 0 002.16.079 2.034 2.034 0 001.59-1.335c.164-.351.207-.746.121-1.123a2.85 2.85 0 00-.679-1.175 10.544 10.544 0 00-1.677-1.566c-.723-.615-1.656-1.339-2.801-2.206a21.714 21.714 0 01-2.988-2.777 11.142 11.142 0 01-2.149-3.317c-.5-1.313-.739-2.71-.704-4.115a14.597 14.597 0 011.278-5.161 18.225 18.225 0 014.393-6.485 18.259 18.259 0 015.735-3.61 17.795 17.795 0 016.306-1.183 23.126 23.126 0 016.065.738 18.712 18.712 0 016.992 3.752 17.43 17.43 0 014.897 6.673l-11.932 6.907a7.4 7.4 0 00-2.017-3.658 6.775 6.775 0 00-3.03-1.856 5.358 5.358 0 00-2.468-.18c-.336.069-.65.221-.912.441s-.463.502-.586.819a1.451 1.451 0 00.173 1.749c.733.729 1.53 1.393 2.381 1.986a51.457 51.457 0 013.598 2.912 15.923 15.923 0 013.144 3.676 11.63 11.63 0 011.555 4.684 12.542 12.542 0 01-1.133 5.964 19.602 19.602 0 01-4.297 6.443 18.652 18.652 0 01-5.713 3.837 18.074 18.074 0 01-6.307 1.509 19.47 19.47 0 01-6.023-.644zm39.323-39.08l26.299 7.331-5.092 12.274-14.245-3.955-1.565 3.769 13.335 3.713-4.676 11.503-13.5-3.73-1.695 4.113 15.122 4.198-5.092 12.274-27.209-7.573 18.318-43.917zm21.905 30.378a30.627 30.627 0 015.72-9.011 27.201 27.201 0 017.51-5.937 24.231 24.231 0 0117.811-1.999 20.663 20.663 0 017.822 3.92 17.024 17.024 0 014.86 6.383 19.096 19.096 0 011.49 8.394 28.31 28.31 0 01-2.329 9.889 32.714 32.714 0 01-5.713 9.076 27.338 27.338 0 01-7.624 6.113 24.582 24.582 0 01-8.771 2.875 23.866 23.866 0 01-9.153-.667 20.184 20.184 0 01-7.792-3.957 17.215 17.215 0 01-4.778-6.555 20.388 20.388 0 01-1.375-8.569 28.18 28.18 0 012.322-9.955zm13.587 3.742a15.02 15.02 0 00-1.084 4.083 9.76 9.76 0 00.347 3.513 6.188 6.188 0 001.585 2.668 6.384 6.384 0 002.729 1.536 7.521 7.521 0 003.314.098 8.795 8.795 0 003.173-1.334 12.287 12.287 0 003.045-2.635 16.02 16.02 0 002.205-3.767 13.46 13.46 0 001.058-4.015 7.859 7.859 0 00-.321-3.253 6.158 6.158 0 00-1.638-2.531 6.011 6.011 0 00-2.726-1.503 7.964 7.964 0 00-3.32-.163 9.918 9.918 0 00-3.186 1.204 11.226 11.226 0 00-2.789 2.543 14.494 14.494 0 00-2.261 3.543l-.131.013z" fill="#fff"/><path d="M338.302 49.576l-66.819 17.419-12.839-49.576 1.213-.316L272.38 65.46l65.607-17.102.315 1.218z" fill="#E5E8ED"/><path d="M284.155 37.23l-7.861 2.05 6.127 23.66 7.861-2.049-6.127-23.661zm12.95-14.803l-7.861 2.05 8.9 34.365 7.861-2.05-8.9-34.365zm16.073-12.007l-7.861 2.05 10.796 41.688 7.862-2.05-10.797-41.688z" fill="#E5E8ED"/><path d="M466.06 387.064a36.832 36.832 0 005.994 20.166 36.668 36.668 0 0016.039 13.561 36.521 36.521 0 0020.825 2.507 36.58 36.58 0 0018.782-9.366 36.777 36.777 0 0010.581-18.17 36.86 36.86 0 00-1.091-21.015 36.74 36.74 0 00-12.404-16.97 36.56 36.56 0 00-19.65-7.359v36.646H466.06z" fill="#00F0B5"/><path d="M462.096 382.799h39.076v-36.686a31.026 31.026 0 00-2.44-.087c-4.813 0-9.578.952-14.024 2.8a36.633 36.633 0 00-11.888 7.972 36.768 36.768 0 00-7.94 11.93 36.848 36.848 0 00-2.784 14.071z" fill="#D7DADD"/><path d="M545.028 237.579l41.555-13.852-10.62-31.933-7.611-3.918-35.877 11.959 12.553 37.744z" fill="#B3B7BC"/><path d="M545.59 237.862l44.542-14.847a.262.262 0 00.164-.33l-11.383-34.227a.274.274 0 00-.127-.149l-8.156-4.194a.263.263 0 00-.202-.016l-38.455 12.818a.262.262 0 00-.164.33l13.454 40.455a.275.275 0 00.05.088.258.258 0 00.277.072zm44.131-15.26l-44.027 14.676-13.29-39.961 38.079-12.693 7.971 4.101 11.267 33.877z" fill="#fff"/><path d="M539.242 205.957l36.719-12.24a.26.26 0 00.034-.48.26.26 0 00-.199-.014l-36.718 12.24a.256.256 0 00-.151.13.269.269 0 00-.014.199c.022.065.069.12.131.151a.257.257 0 00.198.014zm1.958 5.879l36.719-12.24a.26.26 0 00.034-.48.257.257 0 00-.198-.014l-36.719 12.239a.26.26 0 00-.164.33.258.258 0 00.328.165zm1.938 5.836l36.718-12.239a.264.264 0 00.165-.33.264.264 0 00-.131-.151.257.257 0 00-.198-.014l-36.719 12.24a.26.26 0 00-.034.48.26.26 0 00.199.014zm1.948 5.857l36.719-12.239a.262.262 0 00.164-.33.264.264 0 00-.049-.09.272.272 0 00-.08-.063.264.264 0 00-.2-.012l-36.719 12.24a.264.264 0 00-.154.13.257.257 0 00.119.351c.062.03.134.035.2.013zm1.949 5.859l36.719-12.24a.258.258 0 00.15-.131.26.26 0 00.014-.198.255.255 0 00-.329-.165l-36.718 12.239a.257.257 0 00-.09.05.236.236 0 00-.064.08.25.25 0 00-.028.099.25.25 0 00.012.102.268.268 0 00.334.164zm25.63-38.649l5.99-1.997a.262.262 0 00.132-.321.265.265 0 00-.298-.178l-5.744 1.914-2.085-5.949a.277.277 0 00-.335-.163.263.263 0 00-.145.135.271.271 0 00-.012.198l2.168 6.196a.265.265 0 00.329.165z" fill="#fff"/></svg>