<svg width="40" height="40" fill="none" xmlns="http://www.w3.org/2000/svg"><g clip-path="url(#clip0_10171_251)" fill="#7772F1"><path d="M37.791 22.035A14.305 14.305 0 0040 14.375C40 6.449 33.551 0 25.625 0c-2.655 0-5.249.73-7.502 2.11a.781.781 0 10.817 1.333 12.785 12.785 0 016.685-1.88c7.065 0 12.813 5.747 12.813 12.812 0 2.562-.754 5.035-2.18 7.15a.782.782 0 00.021.905l.857 3.195-3.437-.921a.781.781 0 00-.655.118 12.725 12.725 0 01-7.419 2.365c-1.526 0-3.018-.266-4.438-.79-1-3.68-3.903-6.584-7.583-7.584a12.761 12.761 0 01-.791-4.438c0-2.393.663-4.727 1.919-6.749a.781.781 0 10-1.327-.824 14.341 14.341 0 00-2.155 7.573c0 1.405.202 2.785.6 4.116a10.866 10.866 0 00-1.069-.053c-5.944 0-10.78 4.836-10.78 10.78 0 2.134.616 4.183 1.787 5.948l-.837 3.12a.781.781 0 00.957.957l3.198-.856A10.734 10.734 0 0010.781 40c2.054 0 4.051-.58 5.777-1.676a.781.781 0 10-.838-1.32 9.188 9.188 0 01-4.939 1.434 9.174 9.174 0 01-5.11-1.546.781.781 0 00-.635-.104l-2.225.596.58-2.162a.781.781 0 00-.12-.656 9.155 9.155 0 01-1.708-5.347C1.563 24.135 5.698 20 10.78 20S20 24.136 20 29.219a9.192 9.192 0 01-.556 3.158.781.781 0 101.468.535 10.75 10.75 0 00.597-4.761c1.33.397 2.71.599 4.115.599 2.881 0 5.645-.844 8.02-2.443l4.393 1.177a.781.781 0 00.957-.957l-1.204-4.492z"/><path d="M29.652 16.039h-7.957a.781.781 0 00-.781.781 4.765 4.765 0 004.76 4.76 4.765 4.765 0 004.76-4.76.781.781 0 00-.782-.781zm-3.979 3.978a3.203 3.203 0 01-3.1-2.416h6.201a3.203 3.203 0 01-3.1 2.416zm6.085-8.312a.781.781 0 00-1.075-.256l-.101.063a.781.781 0 10.821 1.33l.1-.063a.781.781 0 00.255-1.074zm-10.734-.001a.781.781 0 00-1.075-.255l-.102.063a.781.781 0 10.822 1.33l.1-.063a.781.781 0 00.255-1.075zM7.037 28.667a.787.787 0 00-.553-.229.787.787 0 00-.552.229.787.787 0 00-.229.552.787.787 0 00.781.781.787.787 0 00.553-.228.787.787 0 00.229-.553.787.787 0 00-.23-.552zm4.297 0a.787.787 0 00-.553-.229.787.787 0 00-.552.229.787.787 0 00-.229.552.79.79 0 00.229.553.787.787 0 00.552.229.787.787 0 00.553-.23.787.787 0 00.229-.552.787.787 0 00-.23-.552zm4.296 0a.787.787 0 00-.552-.229.787.787 0 00-.552.229.787.787 0 00-.23.552.787.787 0 00.781.781.787.787 0 00.553-.228.787.787 0 00.23-.553.787.787 0 00-.23-.552zm3.498 6.265a.787.787 0 00-.553-.229.786.786 0 00-.781.782.786.786 0 00.781.781.787.787 0 00.553-.229.787.787 0 00.228-.552.787.787 0 00-.229-.553zM16.592 4.185a.787.787 0 00-1.105 0 .786.786 0 000 1.105.785.785 0 001.105 0 .787.787 0 00.229-.552.789.789 0 00-.23-.553z"/></g><defs><clipPath id="clip0_10171_251"><path fill="#fff" d="M0 0h40v40H0z"/></clipPath></defs></svg>