<svg width="40" height="40" fill="none" xmlns="http://www.w3.org/2000/svg"><g clip-path="url(#clip0_10171_24)" fill="#7772F1"><path d="M13.866 25.845a.786.786 0 00-1.105 0 .79.79 0 00-.229.552.785.785 0 00.781.781.784.784 0 00.781-.78.79.79 0 00-.228-.553z"/><path d="M40 26.555a3.32 3.32 0 00-2.588-3.233c.35-.525.555-1.155.555-1.833a3.318 3.318 0 00-3.314-3.314H25.96l1.138-3.376a5.23 5.23 0 00-.31-4.095 5.23 5.23 0 00-3.153-2.631l-1.37-.417a.78.78 0 00-.962.482l-2.154 5.952a7.34 7.34 0 01-3.395 3.952l-2.151 1.172a2.538 2.538 0 00-2.048-1.039H.781a.781.781 0 00-.781.782v20.261c0 .432.35.782.781.782h10.773c.935 0 1.753-.508 2.194-1.262l1.103.433a11.96 11.96 0 004.385.829h13.65a3.318 3.318 0 003.315-3.314c0-.683-.208-1.318-.563-1.846a3.32 3.32 0 002.532-3.22c0-.696-.217-1.342-.585-1.876A3.32 3.32 0 0040 26.555zm-3.314 1.751h-8.035a.781.781 0 000 1.563h6.205c.965 0 1.751.786 1.751 1.751 0 .966-.785 1.752-1.751 1.752H28.65a.781.781 0 000 1.562h4.236a1.752 1.752 0 010 3.503h-13.65c-1.311 0-2.595-.242-3.815-.72l-1.326-.521V29.53a.781.781 0 00-1.563 0v7.928c0 .54-.438.978-.978.978H1.562v-18.7h9.992c.54 0 .978.44.978.979v2.652a.781.781 0 001.563 0v-2.643l2.405-1.31a8.9 8.9 0 004.117-4.793l1.902-5.255.66.2a3.68 3.68 0 012.22 1.852c.463.9.54 1.922.217 2.881l-1.484 4.407a.782.782 0 00.74 1.03h9.781c.966 0 1.752.786 1.752 1.752s-.786 1.752-1.752 1.752h-6.002a.781.781 0 000 1.562h8.035c.966 0 1.752.786 1.752 1.752s-.786 1.751-1.752 1.751z"/><path d="M8.53 32.465a2.19 2.19 0 00-2.19 2.188 2.19 2.19 0 002.19 2.189 2.19 2.19 0 002.188-2.189 2.19 2.19 0 00-2.189-2.188zm0 2.814a.627.627 0 110-1.253.627.627 0 010 1.253zM23.896.229A.787.787 0 0023.344 0a.786.786 0 00-.553.229.787.787 0 00-.229.552.787.787 0 00.781.781.787.787 0 00.553-.228.787.787 0 00.229-.553.787.787 0 00-.229-.552zm-.552 2.688a.781.781 0 00-.782.781V5.6a.781.781 0 001.563 0V3.7a.781.781 0 00-.781-.782zm10.255 7.337H28.78a.781.781 0 000 1.562h4.82a.781.781 0 000-1.562zm-15.69 0H13.09a.781.781 0 000 1.562h4.818a.781.781 0 000-1.562zm1.571-4.189L17.204 3.79A.781.781 0 0016.1 4.895l2.275 2.275a.78.78 0 001.104 0 .781.781 0 000-1.105zm11.109-2.273a.782.782 0 00-1.105 0l-2.275 2.274a.781.781 0 001.105 1.105l2.275-2.274a.782.782 0 000-1.105z"/></g><defs><clipPath id="clip0_10171_24"><path fill="#fff" d="M0 0h40v40H0z"/></clipPath></defs></svg>