<svg width="40" height="40" fill="none" xmlns="http://www.w3.org/2000/svg"><g clip-path="url(#clip0_10141_3524)" fill="#7772F1"><path d="M39.996 17.564a20.116 20.116 0 00-5.738-11.82A20.116 20.116 0 0022.438.005a.782.782 0 00-.872.776v6.804a.781.781 0 001.562 0V1.68a18.405 18.405 0 0115.193 15.194H23.128v-3.9a.781.781 0 00-1.562 0v4.681c0 .431.35.781.781.781H39.22a.78.78 0 00.776-.872z"/><path d="M22.347 9.456a.781.781 0 00-.781.78v.021a.781.781 0 001.562 0v-.02a.781.781 0 00-.781-.781zm-3.942 25.136a14.447 14.447 0 01-8.632-3.11.781.781 0 10-.965 1.229 15.997 15.997 0 009.578 3.443.781.781 0 00.019-1.562zm2.989.58a.782.782 0 00-.868-.683l-.017.002a.781.781 0 00.186 1.551l.016-.002a.781.781 0 00.683-.868z"/><path d="M37.031 20.313H19.687V2.97a.781.781 0 00-.78-.781c-5.05 0-9.799 1.966-13.37 5.537A18.783 18.783 0 000 21.094c0 5.05 1.967 9.797 5.537 13.368A18.782 18.782 0 0018.907 40c5.05 0 9.797-1.967 13.368-5.538a18.782 18.782 0 005.537-13.368.781.781 0 00-.78-.782zM18.906 38.436c-9.563 0-17.343-7.78-17.343-17.343 0-9.302 7.36-16.916 16.562-17.327v17.328a.78.78 0 00.323.633l14.026 10.157c-3.18 3.99-8.08 6.552-13.568 6.552zm14.486-7.816l-12.075-8.745h14.916a17.234 17.234 0 01-2.841 8.745z"/></g><defs><clipPath id="clip0_10141_3524"><path fill="#fff" d="M0 0h40v40H0z"/></clipPath></defs></svg>