<svg width="40" height="40" fill="none" xmlns="http://www.w3.org/2000/svg"><g clip-path="url(#clip0_10171_304)" fill="#7772F1"><path d="M27.748 30.833a.783.783 0 00-1.123-.002.783.783 0 00.538 1.35c.19 0 .387-.07.554-.232a.783.783 0 00.032-1.116z"/><path d="M34.824 15.793a.781.781 0 00-1.465.543 16.347 16.347 0 011.016 5.697c0 9.045-7.359 16.404-16.404 16.404a16.306 16.306 0 01-9.33-2.91.781.781 0 00-.89 1.284 17.862 17.862 0 0010.22 3.188c4.8 0 9.31-1.868 12.704-5.262a17.848 17.848 0 005.262-12.704 17.91 17.91 0 00-1.113-6.24zM24.02 5.112a17.918 17.918 0 00-6.05-1.045c-4.799 0-9.31 1.87-12.704 5.262A17.85 17.85 0 00.004 22.034c0 3.721 1.128 7.292 3.262 10.325a.78.78 0 101.277-.899 16.299 16.299 0 01-2.977-9.427c0-9.045 7.359-16.403 16.404-16.403 1.897 0 3.755.32 5.524.953a.781.781 0 10.526-1.471z"/><path d="M39.936 6.478a.781.781 0 00-.722-.482h-4.105l.442-.441a.781.781 0 00-1.105-1.105l-.447.447V.78a.781.781 0 00-1.333-.55l-6.887 6.886a.781.781 0 00-.229.552v2.71a13.75 13.75 0 00-7.583-2.248c-7.667 0-13.904 6.238-13.904 13.905 0 7.667 6.237 13.904 13.904 13.904 2.545 0 5.034-.694 7.2-2.007a.781.781 0 00-.81-1.336 12.32 12.32 0 01-6.39 1.78c-6.806 0-12.342-5.536-12.342-12.341 0-6.806 5.536-12.342 12.342-12.342 2.779 0 5.4.9 7.584 2.604v1.05l-1.424 1.423a9.487 9.487 0 00-6.16-2.265c-5.255 0-9.53 4.275-9.53 9.53 0 5.254 4.275 9.53 9.53 9.53 5.255 0 9.53-4.276 9.53-9.53a9.487 9.487 0 00-2.265-6.16l1.429-1.43H27.7a12.37 12.37 0 012.609 7.59 12.31 12.31 0 01-1.846 6.495.781.781 0 101.328.824 13.87 13.87 0 002.08-7.32c0-2.698-.793-5.343-2.254-7.589h2.71a.781.781 0 00.553-.229l6.886-6.886a.78.78 0 00.17-.85zM25.935 22.034c0 4.393-3.575 7.967-7.968 7.967s-7.968-3.574-7.968-7.967c0-4.394 3.575-7.968 7.968-7.968a7.93 7.93 0 015.052 1.811l-1.78 1.78a5.439 5.439 0 00-3.272-1.091 5.474 5.474 0 00-5.468 5.468 5.474 5.474 0 005.468 5.468 5.474 5.474 0 005.468-5.468 5.44 5.44 0 00-1.09-3.273l1.779-1.78a7.931 7.931 0 011.81 5.053zm-8.52.552a.778.778 0 001.104 0l2.705-2.704c.41.617.649 1.357.649 2.152a3.91 3.91 0 01-3.906 3.905 3.91 3.91 0 01-3.906-3.905 3.91 3.91 0 013.906-3.906c.795 0 1.535.24 2.152.649l-2.704 2.704a.781.781 0 000 1.105zm9.698-10.803V7.991l5.324-5.324V6.46l-5.324 5.324zm4.891 1.1h-3.78l5.323-5.325h3.781l-5.324 5.324zM6.353 33.617a.784.784 0 00-1.333.552.784.784 0 00.78.781.787.787 0 00.553-.229.787.787 0 00.229-.552.788.788 0 00-.23-.552z"/></g><defs><clipPath id="clip0_10171_304"><path fill="#fff" d="M0 0h40v40H0z"/></clipPath></defs></svg>