<svg width="40" height="40" fill="none" xmlns="http://www.w3.org/2000/svg"><g clip-path="url(#clip0_10141_3532)" fill="#7772F1"><path d="M31.802 29.454a.787.787 0 00-.552-.23.787.787 0 00-.552.23.787.787 0 00-.23.552.784.784 0 001.333.552.787.787 0 00.23-.552.787.787 0 00-.229-.552z"/><path d="M36.875.001H3.125A3.129 3.129 0 000 3.126v24.538a3.129 3.129 0 003.125 3.125h12.266v3.921a4.537 4.537 0 00-4.089 4.51c0 .431.35.78.781.78h15.834a.78.78 0 00.781-.78 4.536 4.536 0 00-4.245-4.522v-3.91H28.1a.781.781 0 000-1.562H3.125c-.862 0-1.563-.7-1.563-1.562V3.126c0-.862.701-1.563 1.563-1.563h33.75c.862 0 1.563.701 1.563 1.563v24.538c0 .861-.701 1.562-1.563 1.562h-2.917a.781.781 0 000 1.563h2.917A3.129 3.129 0 0040 27.664V3.126A3.129 3.129 0 0036.875.001zM16.953 30.789h5.938v3.9h-5.938v-3.9zm7.214 5.462c1.366 0 2.52.928 2.864 2.188H12.97a2.974 2.974 0 012.864-2.188h8.334z"/><path d="M20.474 26.954a.787.787 0 00-.552-.228.787.787 0 00-.553.229.787.787 0 00-.228.552.784.784 0 001.334.552.786.786 0 00.228-.552.787.787 0 00-.229-.553zm15.62-23.822H23.672a.781.781 0 100 1.562h11.64v19.531H4.689V4.695H16.68a.781.781 0 100-1.563H3.906a.781.781 0 00-.781.78v21.095c0 .431.35.78.781.78h32.188a.78.78 0 00.781-.78V3.913a.781.781 0 00-.781-.781z"/><path d="M20.709 3.36a.787.787 0 00-.553-.229.787.787 0 00-.552.23.787.787 0 00-.229.552.79.79 0 00.229.553.786.786 0 001.105 0 .789.789 0 00.229-.553.787.787 0 00-.23-.553z"/></g><defs><clipPath id="clip0_10141_3532"><path fill="#fff" d="M0 0h40v40H0z"/></clipPath></defs></svg>