<svg width="40" height="40" fill="none" xmlns="http://www.w3.org/2000/svg"><path d="M30.781 18.834a.781.781 0 00-.781.782v.117a.781.781 0 101.563 0v-.117a.781.781 0 00-.782-.782z" fill="#7772F1"/><path d="M35.781 14.678V6.724a2.894 2.894 0 00-2.89-2.89c-.67 0-1.286.229-1.776.612l-8.36 3.131a.781.781 0 10.548 1.463l6.704-2.51a3.115 3.115 0 00-.007.194v9.063a.781.781 0 001.562 0V6.725a1.33 1.33 0 011.329-1.328 1.33 1.33 0 011.328 1.328v25.781a1.33 1.33 0 01-1.328 1.329 1.33 1.33 0 01-1.329-1.329v-9.453a.781.781 0 10-1.562 0v9.453c0 .066.003.131.007.196l-19.695-7.378V13.908l7.93-2.97a.781.781 0 10-.548-1.464l-8.304 3.11H4.61A4.615 4.615 0 000 17.195v4.844a4.614 4.614 0 004.46 4.605l3.443 9.02a.781.781 0 00.73.503h4.531a.781.781 0 00.73-1.06l-3.015-7.901 20.236 7.58c.49.383 1.107.612 1.776.612a2.894 2.894 0 002.89-2.89v-7.952A5.008 5.008 0 0040 19.616a5.007 5.007 0 00-4.219-4.938zM4.61 25.084a3.05 3.05 0 01-3.046-3.047v-4.844a3.05 3.05 0 013.046-3.047h4.14v10.938H4.61zm7.42 9.518H9.172l-3.037-7.956h2.86l3.036 7.956zm23.752-11.64v-6.694a3.443 3.443 0 012.657 3.347 3.443 3.443 0 01-2.657 3.347z" fill="#7772F1"/><path d="M21.071 8.698a.787.787 0 00-.552-.23.787.787 0 00-.552.23.787.787 0 00-.23.552.787.787 0 00.781.781.787.787 0 00.553-.229.787.787 0 00.23-.552.787.787 0 00-.23-.552zM5.709 17.163a.784.784 0 00-1.105 0 .787.787 0 00-.229.552c0 .206.084.406.229.552a.787.787 0 00.552.23.787.787 0 00.553-.23.787.787 0 00.229-.552.786.786 0 00-.23-.552zm.854 4.25h-2.5a.781.781 0 000 1.562h2.5a.781.781 0 100-1.562z" fill="#7772F1"/></svg>