<svg width="14" height="15" fill="none" xmlns="http://www.w3.org/2000/svg"><path fill-rule="evenodd" clip-rule="evenodd" d="M7 1.667a2.333 2.333 0 100 4.666 2.333 2.333 0 000-4.666zM3.333 4a3.667 3.667 0 117.334 0 3.667 3.667 0 01-7.334 0zM3.07 9.667c-.463 0-.824.225-.97.548-.204.447-.387.98-.43 1.486-.02.226.074.392.204.473.686.426 2.276 1.16 5.126 1.16 2.85 0 4.44-.734 5.126-1.16.13-.08.224-.247.205-.473-.043-.506-.227-1.039-.43-1.486-.147-.323-.508-.548-.97-.548H3.069zM.884 9.664c.405-.893 1.31-1.33 2.184-1.33h7.862c.874 0 1.779.437 2.184 1.33.233.514.483 1.204.544 1.923.057.655-.216 1.338-.829 1.72-.902.56-2.737 1.36-5.83 1.36s-4.927-.8-5.83-1.36c-.613-.382-.885-1.066-.83-1.72.062-.72.312-1.41.545-1.923z" fill="#787A80"/></svg>