<svg width="40" height="40" fill="none" xmlns="http://www.w3.org/2000/svg"><path d="M31.25 11.875H20a.781.781 0 100 1.563h11.25a.781.781 0 000-1.563zm-2.733 3.979a.787.787 0 00-.552-.229.787.787 0 00-.552.229.787.787 0 00-.23.552.787.787 0 00.781.781.787.787 0 00.553-.228.787.787 0 00.23-.553.787.787 0 00-.23-.552zM20.551 3.588A.787.787 0 0020 3.36a.787.787 0 00-.552.228.787.787 0 00-.23.553.787.787 0 00.781.781.787.787 0 00.553-.229.787.787 0 00.23-.552.787.787 0 00-.23-.553zm4.127 12.037H20a.781.781 0 100 1.563h4.678a.781.781 0 000-1.563zm6.572 4.688H20a.781.781 0 100 1.562h11.25a.781.781 0 000-1.563zm-2.733 3.978a.787.787 0 00-.552-.229.787.787 0 00-.552.23.787.787 0 00-.23.552.787.787 0 00.781.781.787.787 0 00.553-.229.787.787 0 00.23-.552.787.787 0 00-.23-.553zm-3.839-.228H20a.781.781 0 100 1.562h4.678a.781.781 0 000-1.563zm6.572 4.687H20a.781.781 0 100 1.562h11.25a.781.781 0 000-1.562zm-2.733 3.979a.787.787 0 00-.552-.229.787.787 0 00-.552.229.787.787 0 00-.23.552.787.787 0 00.781.781.787.787 0 00.553-.228.787.787 0 00.23-.553.787.787 0 00-.23-.552zm-3.839-.229H20a.781.781 0 100 1.562h4.678a.781.781 0 000-1.562z" fill="#7772F1"/><path d="M32.753 3.047h-5.967a4.786 4.786 0 00-3.311-1.328h-.684A3.135 3.135 0 0020 0a3.135 3.135 0 00-2.79 1.719h-.687a4.786 4.786 0 00-3.31 1.328H7.246c-2.1 0-3.81 1.709-3.81 3.81V36.19c0 2.1 1.71 3.809 3.81 3.809h25.506c2.1 0 3.81-1.709 3.81-3.81V6.857c0-2.1-1.71-3.809-3.81-3.809zm-16.23.234h1.218a.78.78 0 00.753-.573A1.566 1.566 0 0120 1.562c.7 0 1.32.472 1.506 1.146a.781.781 0 00.753.573h1.216a3.247 3.247 0 013.23 2.97H13.294a3.247 3.247 0 013.23-2.97zM35 36.191a2.25 2.25 0 01-2.247 2.247H7.247A2.25 2.25 0 015 36.19V6.856A2.25 2.25 0 017.247 4.61h4.87a4.775 4.775 0 00-.398 1.915v.507c0 .432.35.782.781.782h14.998c.432 0 .782-.35.782-.782v-.507c0-.68-.143-1.328-.4-1.915h4.873A2.25 2.25 0 0135 6.856v29.335z" fill="#7772F1"/><path d="M15.031 11.686a.781.781 0 00-1.105 0l-3.34 3.34-1.03-1.029a.782.782 0 00-1.105 1.105l1.582 1.582a.78.78 0 001.105 0l3.893-3.893a.781.781 0 000-1.105zM13.125 28.75h-3.75a.781.781 0 00-.781.781v3.75c0 .432.35.781.781.781h3.75a.78.78 0 00.781-.78v-3.75a.781.781 0 00-.78-.782zm-.781 3.75h-2.188v-2.188h2.188V32.5zm.781-12.187h-3.75a.781.781 0 00-.781.78v3.75c0 .432.35.782.781.782h3.75a.78.78 0 00.781-.781v-3.75a.781.781 0 00-.78-.782zm-.781 3.75h-2.188v-2.188h2.188v2.188z" fill="#7772F1"/></svg>