<svg width="398" height="397" fill="none" xmlns="http://www.w3.org/2000/svg"><rect width="195.33" height="209.432" rx="3" transform="matrix(-1 0 0 1 389.337 13.132)" fill="#fff"/><path d="M194.007 13.132v209.432h195.329" stroke="#1E212C" stroke-width="1.5"/><path fill="#00F0B5" d="M335.602 6.493h-87.861V21.94h87.861z"/><path d="M291.671 12.796a5.955 5.955 0 01-5.96-5.951 5.955 5.955 0 015.96-5.95 5.956 5.956 0 015.961 5.95 5.956 5.956 0 01-5.961 5.95z" fill="#00F0B5"/><path fill="#D7DADD" d="M335.602 6.493h-87.861V21.94h87.861z"/><path d="M247.741 6.492V21.94h87.861" stroke="#1E212C" stroke-width="1.5"/><path d="M291.671 12.796a5.955 5.955 0 01-5.96-5.951 5.955 5.955 0 015.96-5.95 5.956 5.956 0 015.961 5.95 5.956 5.956 0 01-5.961 5.95z" fill="#D7DADD"/><path d="M291.671 222.564v166.139m105.72 0H185.952" stroke="#fff" stroke-width="1.5"/><path d="M22.727 380.291v-12.792l11.827 10.824 3.942-33.946 31.046 22.138 3.942-14.758 10.842 10.823v-17.711l13.305 15.743 11.828-35.422 14.783 36.431 21.683-27.084 16.262 36.899v-17.712l9.363 17.22 6.407-23.123 17.74 27.55 27.104-33.946 8.378 33.454 7.885-9.347 5.913 23.171H17.306l-1.97-8.904 7.39.492z" fill="#00F0B5"/><path d="M257.811 388.703H2.501" stroke="#fff" stroke-width="1.5"/><path d="M81.921 152.4l56.125-3.684 14.535 57.232 33.371 181.607H140.53l5.29-9.464L81.921 152.4z" fill="#D7DADD"/><path d="M74.618 377.536l-2.76-103.34 44.165 8.267-10.254 105.092H68.023l6.595-10.019z" fill="#B3B7BC"/><path d="M88.156 277.246l27.868 5.217-1.23 12.606c-23.19-3.123-39.161-9.34-39.161-9.34l12.523-8.483zm55.359-37.497s7.026 2.164 16.324 5.693l8.98 48.873c-16.371 2.982-32.313 2.972-46.252 1.647l-9.983-35.262 30.931-20.951z" fill="#1E212C"/><path d="M143.515 153.527l55.273 114.422s-65.555 34.445-130.765 15.845V165.303l75.492-11.776z" fill="#00F0B5"/><path d="M122.951 39.454v8.488c0 6.564-4.489 12.28-10.874 13.846l-13.53 3.32V31.92l11.25-2.76a10.632 10.632 0 019.086 1.951 10.594 10.594 0 014.068 8.343z" fill="#D7DADD"/><path d="M122.951 47.943c0 6.563-4.489 12.279-10.873 13.846l-13.531 3.32" stroke="#1E212C" stroke-width="1.5"/><path d="M109.165 46.258a.652.652 0 11-.002-1.304.652.652 0 01.002 1.304zm10.022 0a.652.652 0 110-1.304.652.652 0 010 1.304z" fill="#1E212C"/><path d="M116.247 49.493v-10.04h5.038m-13.349.001h5.038" stroke="#1E212C" stroke-width="1.5"/><path d="M100.154 44.597v3.486a3.413 3.413 0 01-2.411-.997 3.402 3.402 0 01-.985-2.718c.19-2.114 3.396-1.894 3.396.229z" fill="#E5E8ED"/><path d="M100.154 48.084a3.414 3.414 0 01-2.411-.998 3.402 3.402 0 01-1-2.407" stroke="#1E212C" stroke-width="1.5"/><path d="M113.492 50.666c-.882.88-2.312.88-3.194 0" stroke="#1E212C" stroke-width="1.5" stroke-linecap="round" stroke-linejoin="round"/><path d="M116.247 49.5l-2.203.541" stroke="#1E212C" stroke-width="1.5" stroke-linecap="round"/><path d="M118.535 59.938l.387.176a7.981 7.981 0 007.728-.617 7.952 7.952 0 003.546-6.883c-.442-12.663-3.426-30.232-16.703-28.974 0 0-13.488-3.087-18.894 9.314-5.406 12.401 1.225 18.372 3.948 19.75" stroke="#fff" stroke-width="1.5"/><path d="M123.238 42.89s-10.186-1.783-11.342-8.596c0 0-5.046 8.438-12.087 9.252" stroke="#fff" stroke-width="1.5"/><path d="M143.515 100.326v53.201l-75.492 18.524V112.8c0-21.01 14.367-39.305 34.804-44.32a32.892 32.892 0 0128.107 6.038 32.774 32.774 0 0112.581 25.808z" fill="#D7DADD"/><path d="M198.788 267.949s-65.555 34.445-130.765 15.845" stroke="#1E212C" stroke-width="1.5"/><path d="M88.283 74.888s-36.989 25.822-37.127 64.277c-.202 55.88 86.732 5.511 89.546-3.675l2.813-9.186s11.613-4.774 8.853-6.52c-2.76-1.747-84.345 15.553-84.345 15.553" stroke="#fff" stroke-width="1.5"/><path d="M130.2 74.888s21.248 15.133 29.989 54.632c0 0 14.262-19.725 19.322-27.316 5.061-7.59 9.202-2.538 9.202-2.538s5.889-8.727 10.075-5.052c4.186 3.674-7.011 66.688-47.878 74.221" stroke="#fff" stroke-width="1.5"/><path d="M147.431 124.59l85.6-42.07" stroke="#00F0B5" stroke-width="1.5"/><path d="M309.06 57.92c-23.549 0-42.64 19.059-42.64 42.569s19.091 42.569 42.64 42.569c23.55 0 42.641-19.059 42.641-42.569H309.06v-42.57z" fill="#D7DADD"/><path d="M266.42 100.489c0 23.51 19.091 42.569 42.64 42.569 23.55 0 42.641-19.059 42.641-42.569" stroke="#1E212C" stroke-width="1.5"/><path d="M351.701 100.489H309.06l34.319 25.266a42.33 42.33 0 008.322-25.266z" fill="#1E212C"/><path d="M309.06 45.046v55.443h55.537a55.394 55.394 0 00-16.267-39.204 55.581 55.581 0 00-39.27-16.24z" fill="#00F0B5"/><path d="M309.06 100.489h55.537" stroke="#1E212C" stroke-width="1.5"/><path fill="#D7DADD" d="M306.49 200.675h26.554v-26.51H306.49z"/><path d="M299.21 176.163l20.558-20.524 20.557 20.524H299.21z" fill="#D7DADD"/><path fill="#9A9CA5" d="M258.676 200.714h23.015v-22.976h-23.015z"/><path d="M252.366 179.468l17.818-17.787 17.817 17.787h-35.635z" fill="#9A9CA5"/><path fill="#1E212C" d="M221.229 200.893h15.638v-15.612h-15.638z"/><path d="M216.942 186.458l12.106-12.087 12.107 12.087h-24.213z" fill="#1E212C"/></svg>