<svg width="488" height="404" fill="none" xmlns="http://www.w3.org/2000/svg"><path d="M291.271 47.259l-9.906 56.768 67.372 29.544 16.717-95.799-67.372-29.544-6.811 39.03z" fill="#E5E8ED"/><path d="M291.277 47.259s19.293-4.498 26.388-18.289c0 0 7.622 30.198 31.232 38.545" stroke="#1E212C" stroke-width="1.5" stroke-linecap="round" stroke-linejoin="round"/><path d="M327.609 73.825a1.91 1.91 0 10.658-3.759 1.91 1.91 0 00-.658 3.759zm-28.907-5.035a1.91 1.91 0 10.658-3.763 1.91 1.91 0 00-.658 3.763z" fill="#1E212C"/><path d="M305.555 79.602l5.057-28.976-14.53-2.531m38.5 6.706l-14.53-2.53" stroke="#1E212C" stroke-width="1.5" stroke-linecap="round" stroke-linejoin="round"/><path d="M354.433 73.558l-1.756 10.063c5.433.947 10.605-2.686 11.552-8.115.053-.301.091-.602.116-.901.514-6.2-8.843-7.174-9.912-1.047z" fill="#EDEEEF"/><path d="M352.679 83.621c5.433.947 10.606-2.686 11.553-8.114m-53.569 12.346c2.64.46 5.356-.147 7.548-1.687a10.095 10.095 0 004.144-6.526m-40.988 24.386l67.371 29.545m-43.187-53.944l6.082 2.667" stroke="#1E212C" stroke-width="1.5" stroke-linecap="round" stroke-linejoin="round"/><path d="M289.272 58.746S270.155-9.471 327.996 6.752c0 0 87.123 28.376 27.364 88.89" stroke="#1E212C" stroke-width="1.5" stroke-linecap="round" stroke-linejoin="round"/><path d="M487.166 343.248H21.747a.835.835 0 01-.833-.833.832.832 0 01.833-.833h465.419a.833.833 0 110 1.666z" fill="#D7DADD"/><path d="M120.51 189.486c66.133 0 119.744-40.978 119.744-91.527 0-50.55-53.611-91.527-119.744-91.527C54.377 6.432.766 47.41.766 97.959s53.611 91.527 119.744 91.527z" fill="#fff"/><path d="M120.562 190.32C54.085 190.32 0 148.896 0 97.96 0 47.021 54.035 5.614 120.562 5.614c66.526 0 120.578 41.423 120.578 92.344 0 50.921-54.135 92.361-120.578 92.361zm0-183.038c-65.56 0-118.894 40.673-118.894 90.677 0 50.004 53.368 90.694 118.894 90.694 65.525 0 118.91-40.673 118.91-90.694 0-50.02-53.385-90.677-118.91-90.677z" fill="#D7DADD"/><path d="M253.581 58.586a7.721 7.721 0 00-1.667.233c-6.255 1.666-8.006 10.23-.984 12.53a7.143 7.143 0 007.864-3.014 7.13 7.13 0 001.058-2.785 6.18 6.18 0 00-6.271-6.964z" fill="#fff"/><path d="M252.781 72.482a7.063 7.063 0 01-2.135-.334 6.785 6.785 0 01-5.12-6.764 8.063 8.063 0 016.154-7.382 7.427 7.427 0 011.901-.233 6.996 6.996 0 015.338 2.314 6.964 6.964 0 011.733 5.55 7.559 7.559 0 01-3.535 5.516 8.014 8.014 0 01-4.336 1.333zm.8-13.047a5.65 5.65 0 00-1.484.183 6.386 6.386 0 00-4.903 5.815 5.152 5.152 0 003.969 5.132 6.308 6.308 0 007.822-5.098 5.324 5.324 0 00-1.309-4.25 5.33 5.33 0 00-4.078-1.782h-.017z" fill="#B3B7BC"/><path d="M399.276 229.26l34.472-8.731c-1.301-2.466-22.248-65.267-41.46-77.481-16.494-13.696-49.616-14.996-87.123-16.496a115.621 115.621 0 00-35.69 3.483c-43.745 12.08-74.482 74.065-74.482 74.065l43.095 8.514s-6.855 64.018-12.859 142.065c0 0 68.678 15.446 175.981 9.431 0 0-2.952-123.753-1.934-134.85z" fill="#00F0B5"/><path d="M294.375 148.33l-35.656 213.93 72.463 5.232 15.711-231.409-52.518 12.247z" fill="#1E212C"/><path d="M331.183 368.325l-72.447-5.233a.872.872 0 01-.601-.316.898.898 0 01-.166-.65l35.656-213.93a.798.798 0 01.617-.667l52.534-12.263a.76.76 0 01.717.183.82.82 0 01.301.683l-15.711 231.409a.805.805 0 01-.283.567.853.853 0 01-.617.217zm-71.48-6.749l70.713 5.116 15.576-229.477-50.899 11.881-35.39 212.48zm172.394-72.964a.812.812 0 01-.5-.167l-24.6-18.862a.868.868 0 01-.167-1.183.854.854 0 011.168-.15l24.616 18.879a.838.838 0 01.266.924.835.835 0 01-.783.559z" fill="#1E212C"/><path d="M336.886 150.813s-9.423-9.031-11.925-20.078c-2.502-11.048-1.534-13.43-3.252-13.814-1.718-.383-4.62.784-6.771 4.549-2.151 3.766-1.568 17.013 1.935 22.345 3.502 5.332 20.013 6.998 20.013 6.998z" fill="#fff"/><path d="M336.883 151.629h-.083c-.684-.084-16.945-1.783-20.63-7.382-3.686-5.599-4.32-19.112-1.952-23.211 2.369-4.099 5.504-5.415 7.655-4.999 1.551.334 1.668 1.667 2.118 4.483.284 2.066.701 5.198 1.785 9.997 2.418 10.664 11.591 19.579 11.674 19.662a.885.885 0 01.184.95.85.85 0 01-.751.5zm-15.81-33.942c-1.351 0-3.619 1.033-5.42 4.166-1.801 3.132-1.501 16.296 1.918 21.478 2.301 3.515 11.674 5.548 17.094 6.348-2.869-3.166-8.606-10.347-10.507-18.779a105.103 105.103 0 01-1.818-10.114c-.333-2.416-.45-2.982-.817-3.066a1.883 1.883 0 00-.45-.016v-.017z" fill="#1E212C"/><path d="M197.611 205.266s-41.893 102.991-26.183 134.317c15.71 31.325 170.227 45.322 170.227 45.322s19.646 8.331 25.75 9.597c6.104 1.267 29.252 2.616 29.252 2.616s-8.739 1.667-5.687 4.349c3.052 2.683 20.013 2.616 21.831-3.482 1.818-6.099-3.052-30.526-8.339-34.458-5.287-3.933-64.608-18.329-68.961-18.746-4.353-.416-102.133-34.308-102.133-34.308l12.658-95.643" fill="#fff"/><path d="M399.324 404c-3.886 0-7.471-.65-8.889-1.866a2.124 2.124 0 01-.884-2.2 4.222 4.222 0 012.502-2.233c-7.088-.45-20.33-1.399-24.816-2.366-5.937-1.266-23.982-8.831-25.784-9.581-7.971-.733-155.1-14.529-170.777-45.805-6.671-13.213-4.203-39.99 7.155-79.53 8.338-29.36 18.912-55.203 19.012-55.47a.838.838 0 011.551.633c-.417 1.033-41.577 102.925-26.217 133.634 15.36 30.709 168.009 44.755 169.56 44.889a.539.539 0 01.233 0c.201.083 19.647 8.331 25.617 9.547 5.971 1.217 28.885 2.583 29.119 2.6a.832.832 0 01.784.766.866.866 0 01-.667.883c-2.519.5-5.454 1.667-5.654 2.4 0 .116.15.333.35.5 1.668 1.433 9.673 2.232 15.644.449 1.901-.583 4.303-1.666 4.836-3.532 1.768-6.165-3.335-29.993-7.988-33.558-4.653-3.566-63.258-18.063-68.545-18.579-4.419-.45-98.397-32.975-102.333-34.358a.816.816 0 01-.55-.883l12.658-95.66a.832.832 0 01.321-.557.828.828 0 01.621-.168.855.855 0 01.558.321.828.828 0 01.168.621l-12.575 94.976c33.972 11.764 97.964 33.708 101.316 34.042 3.352.333 63.658 14.629 69.378 18.912 5.72 4.282 10.373 29.109 8.589 35.358-.584 2.049-2.652 3.665-5.954 4.665a30.257 30.257 0 01-8.339 1.15z" fill="#1E212C"/><path d="M374.827 235.359s-28.135-71.982-36.04-83.829c-7.905-11.847-42.594-40.774-46.914-37.891-4.319 2.883-3.052 6.098-1.251 8.331 1.801 2.233 11.858 9.148 11.858 9.148s-11.324-5.199-11.674 1.666c-.351 6.865 8.338 10.964 8.338 10.964s-9.522-7.015-9.889.533a11.087 11.087 0 006.671 10.414s-10.14-8.597-9.173.367c1.668 14.73 31.287 32.325 31.287 32.325l12.575 122.42s4.503 70.999 49.849 68.85c58.188-2.766 75.049-86.646 45.963-157.578" fill="#fff"/><path d="M378.362 379.423c-43.761 0-48.631-68.983-48.681-69.683l-12.525-121.97c-3.569-2.166-29.753-18.495-31.32-32.741-.267-2.433.233-3.999 1.484-4.666a3.44 3.44 0 012.435-.2 10.83 10.83 0 01-1.418-6.032 4.198 4.198 0 012.085-3.949 4.28 4.28 0 012.352-.3 10.194 10.194 0 01-2.819-7.248 4.231 4.231 0 011.935-3.582 8.339 8.339 0 015.703-.45 63.725 63.725 0 01-7.621-6.165 5.823 5.823 0 01-1.533-2.342 5.82 5.82 0 01.811-5.37 5.824 5.824 0 012.156-1.786c3.169-2.116 15.844 7.531 23.098 13.48 9.356 7.648 20.697 18.245 25.017 24.644 7.855 11.797 35.022 81.046 36.123 83.996a.83.83 0 01-.484 1.066.805.805 0 01-1.067-.466c-.283-.717-28.202-72.016-35.973-83.663-3.619-5.432-13.509-15.196-24.633-24.294-13.459-11.014-20.013-14.063-21.114-13.33a4.998 4.998 0 00-2.518 3.249 5.154 5.154 0 001.434 3.783c1.418 1.666 8.923 7.064 11.675 8.997a.832.832 0 01.233 1.1.818.818 0 01-1.067.35c-1.835-.85-7.088-2.716-9.373-1.333a2.546 2.546 0 00-1.134 2.233c-.2 3.865 2.835 6.831 5.187 8.548a20.973 20.973 0 012.751 1.666.835.835 0 01.196 1.08.838.838 0 01-.46.365.84.84 0 01-.586-.029 20.525 20.525 0 01-2.819-1.666c-1.667-.883-3.652-1.483-4.753-.966-.684.316-1.067 1.166-1.134 2.516a9.367 9.367 0 002.685 7.148 27.083 27.083 0 013.686 2.582.84.84 0 01.28.503.833.833 0 01-1.147.897 12.749 12.749 0 01-3.703-2.549c-1.517-.85-2.952-1.367-3.702-.967-.751.4-.801 1.383-.617 3.016 1.551 14.147 30.586 31.526 30.87 31.659a.844.844 0 01.417.633l12.575 122.42c0 .733 4.903 70.232 48.965 68.1 18.262-.867 33.438-9.998 43.928-26.46 19.88-31.176 20.414-83.413 1.318-129.968a.847.847 0 01.45-1.083.868.868 0 011.101.45c19.279 47.038 18.695 99.875-1.468 131.5-10.773 16.913-26.434 26.327-45.246 27.227l-2.035.05z" fill="#1E212C"/><path d="M373.376 232.592s22.698 61.651 28.518 81.98l-28.518-81.98z" fill="#fff"/><path d="M401.896 315.405a.812.812 0 01-.801-.599c-5.754-20.079-28.268-81.314-28.502-81.93a.844.844 0 01.016-.648.834.834 0 011.552.081c.217.617 22.765 61.902 28.535 82.047a.852.852 0 01-.567 1.033l-.233.016zM249.713 173.29c0 1.75-3.502 34.308-3.502 34.308l3.502-34.308z" fill="#1E212C"/><path d="M246.209 208.415h-.084a.839.839 0 01-.556-.307.838.838 0 01-.178-.61c.968-9.031 3.486-32.808 3.486-34.208a.833.833 0 011.668 0c0 1.767-3.336 33.059-3.486 34.392a.836.836 0 01-.85.733zM99.682 111.54c-.968-12.447 3.936-20.629 17.761-30.526 12.458-8.765 16.011-13.33 15.477-20.278-.65-8.332-8.189-12.914-19.429-12.047-13.893 1.083-21.764 10.714-21.548 26.66l-30.403.1c-1.334-30.476 18.562-51.938 50.033-54.37 27.985-2.166 49.715 13.18 51.5 36.24 1.101 14.08-5.003 24.611-20.63 35.875-12.625 9.398-15.41 13.097-14.86 20.245l.55 7.148-27.584 2.183-.867-11.23zm0 25.46l32.554-2.533 2.452 31.659-32.638 2.499L99.682 137z" fill="#1E212C"/><path d="M270.407 79.098c4.786.966 5.303-7.215.25-6.299a3.2 3.2 0 00-.25 6.299z" fill="#fff"/><path d="M271.177 79.98a4.573 4.573 0 01-.934-.1 3.818 3.818 0 01-3.219-3.849 4.166 4.166 0 013.486-4.082 3.637 3.637 0 013.902 1.466 4.561 4.561 0 01-.133 4.999 3.634 3.634 0 01-3.102 1.566zm-.517-1.666a2.104 2.104 0 002.335-.85 2.986 2.986 0 00.1-3.082 2 2 0 00-2.202-.734 2.553 2.553 0 00-2.118 2.467 2.154 2.154 0 001.885 2.199z" fill="#B3B7BC"/><path d="M107.086 291.594a13.473 13.473 0 00-1.934-8.031 64.11 64.11 0 01-4.07-5.099c-1.667-3.333-.517-7.115-.917-10.697a12.829 12.829 0 00-4.253-7.982c-2.118-1.899-4.836-3.199-6.87-5.182-3.336-3.232-4.27-7.798-6.155-11.847a30.929 30.929 0 00-13.342-13.83c3.62 6.449-4.62 14.647-.884 21.045 1.184 2.016 3.436 3.499 4.303 5.649 2.101 5.182-4.87 10.797-2.652 15.946 1.118 2.566 4.236 4.049 5.67 6.481 1.952 3.333.418 7.265.584 10.981.217 5.115 3.736 9.681 7.906 13.23 2.601 2.2 5.486 4.116 8.338 6.099 3.336 2.382 4.787 4.898 7.739 1.066a30.409 30.409 0 006.537-17.829zm7.505 2.416c-1.084-3.966-1.851-8.248 0-11.98 2.068-4.233 7.188-7.215 7.788-11.781.401-2.999-1.317-6.031-.65-8.981.667-2.949 3.336-4.999 5.654-7.148a28.32 28.32 0 008.722-18.329 45.153 45.153 0 018.339 12.164 14.059 14.059 0 01-1.218 13.73 12.655 12.655 0 00-2.101 3.049c-1.017 2.916 1.801 5.632 3.335 8.331a8.739 8.739 0 01-1.017 9.915c-2.952 3.332-8.639 4.532-10.006 8.497a17.755 17.755 0 00-.517 4.516 13.82 13.82 0 01-10.741 11.364c-3.502.733-3.335-.483-4.052-3.083-1.068-3.399-2.569-6.781-3.536-10.264zm-11.107-28.459c-2.485-7.598-3.486-15.546-6.088-23.111a120.012 120.012 0 00-8.122-17.229l10.64 3.966c3.336 1.283 7.105 2.782 8.723 5.731 2.802 5.149-2.235 11.748.7 16.83a41.255 41.255 0 004.22 4.682c3.135 3.899 2.652 9.264.934 13.796-.734 1.95-3.969 12.047-6.855 9.248-1.15-1.133-1.25-5.315-1.667-6.848-.801-2.366-1.718-4.699-2.485-7.065z" fill="#D7DADD"/><path d="M101.947 335.866c-1.868-13.746-3.485-25.677-3.502-25.877l-1.668.217c0 .2 1.668 11.997 3.469 25.66h1.701zm14.377.001c2.285-17.762 4.653-30.942 5.987-32.409l-1.234-1.116c-1.851 2.033-4.353 17.446-6.421 33.525h1.668zm-2.032 0c-1.818-32.109-5.003-63.968-5.003-64.384l-1.668.166c0 .417 3.336 32.192 5.003 64.218h1.668z" fill="#D7DADD"/><path d="M85.405 316.788h47.164l-3.335 35.425c-.567 6.131-7.438 10.897-15.71 10.897h-9.123c-8.339 0-15.143-4.766-15.727-10.897l-3.269-35.425z" fill="#D7DADD"/></svg>