<svg width="373" height="506" fill="none" xmlns="http://www.w3.org/2000/svg"><path d="M316.083 155.645a28.56 28.56 0 004.657 15.647 28.473 28.473 0 0012.461 10.521 28.409 28.409 0 0030.771-5.322 28.532 28.532 0 008.22-14.098 28.574 28.574 0 00-.848-16.306 28.508 28.508 0 00-9.636-13.166 28.419 28.419 0 00-15.266-5.71v28.434h-30.359z" fill="#E5E8ED"/><path d="M313.001 152.335h30.358V123.87a24.048 24.048 0 00-1.895-.067c-3.739 0-7.441.738-10.895 2.172a28.468 28.468 0 00-9.236 6.185 28.533 28.533 0 00-6.169 9.257 28.57 28.57 0 00-2.163 10.918z" fill="#00F0B5"/><path d="M242.058 28.566l-10.467-6.617 58.498-6.474-23.609 31.792-8.555-6.09-12.76 5.179-3.107-17.79zm3.202 12.036l.382-8.152-.095-.048L274.7 21.085l-29.966 9.16-1.433-.912 1.959 11.269zm-10.419-17.886l10.037 6.33 38.234-11.7-48.271 5.37zm52.476-5.37l-39.476 15.296 18.4 13.138 21.076-28.435zm-40.575 15.871l-.574 11.508 10.706-4.315-10.132-7.193z" fill="#9A9CA5"/><path d="M216.526 69.124c2.607 0 5.024-.523 7.015-1.9 2.702-1.852 4.171-4.417 4.787-7.124 1.991.38 4.172.237 6.542-.76 6.92-2.945 10.19-10.544 10.333-10.829l-.996-.427c-.047.095-3.223 7.504-9.717 10.258-2.133.903-4.123 1.045-5.925.713.474-3.277-.284-6.554-1.611-8.834-1.469-2.422-3.508-3.372-5.356-2.422-1.991 1.045-2.512 3.42-1.233 6.127 1.138 2.422 3.65 4.939 6.968 5.936-.569 2.47-1.896 4.797-4.313 6.46-8.58 5.889-26.876-5.32-27.065-5.415l-.569.903c.474.38 11.85 7.314 21.14 7.314zm6.446-20.613c1.47 0 2.607 1.662 2.939 2.28 1.233 2.042 1.896 5.034 1.469 7.979-2.938-.902-5.166-3.182-6.161-5.32-.806-1.662-.996-3.799.758-4.701.379-.19.711-.238.995-.238z" fill="#00F0B5"/><path d="M222.676 493.769V351.173l-38.79-36.478L179.652 505h51.85l-8.826-11.231z" fill="#D7DADD"/><path d="M212.719 222.019l-64.585-4.433-11.743 82.915V505h59.987l-6.343-11.389 22.684-271.592z" fill="#E5E8ED"/><path d="M182.589 372.994a274.001 274.001 0 0040.087-9.485l-39.456-18.877-.631 28.362z" fill="#1E212C"/><path d="M136.392 322.229v52.843c22.443 2.284 46.883-1.641 64.007-5.525l1.34-16.054-65.347-31.264z" fill="#1E212C"/><path d="M196.378 504.999l-6.343-11.389 22.684-271.591" stroke="#1E212C" stroke-width="1.5" stroke-linecap="round" stroke-linejoin="round"/><path d="M138.629 159.355v64.021l90.512 22.291v-71.302c0-25.282-17.226-47.298-41.728-53.332a39.323 39.323 0 00-33.699 7.265 39.492 39.492 0 00-15.085 31.057z" fill="#00F0B5"/><path d="M156.554 86.103v10.215c0 7.898 5.381 14.776 13.036 16.662l16.223 3.995V77.037l-13.489-3.323a12.712 12.712 0 00-10.894 2.35 12.767 12.767 0 00-4.876 10.039z" fill="#E5E8ED"/><path d="M156.554 96.318c0 7.898 5.381 14.777 13.036 16.662l16.223 3.995" stroke="#1E212C" stroke-width="1.5" stroke-linecap="round" stroke-linejoin="round"/><path d="M173.083 94.291a.783.783 0 10-.002-1.565.783.783 0 00.002 1.565zm-12.016 0a.783.783 0 100-1.566.783.783 0 000 1.566z" fill="#1E212C"/><path d="M164.591 98.183v-12.08h-6.04m16.005 0h-6.04" stroke="#1E212C" stroke-width="1.5" stroke-linecap="round" stroke-linejoin="round"/><path d="M183.886 92.293v4.195a4.093 4.093 0 004.072-4.47c-.229-2.545-4.072-2.28-4.072.275z" fill="#E5E8ED"/><path d="M183.886 96.488a4.093 4.093 0 004.089-4.097m-20.081 7.204a2.701 2.701 0 003.829 0m-7.133-1.402l2.642.651m-10.678-16.099s8.562-1.097 10.679-5.25c0 0 2.682 4.329 6.631 3.96 0 0 2.295 4.698 6.34 3.87 0 0-.313 4.41 3.682 5.342" stroke="#1E212C" stroke-width="1.5" stroke-linecap="round" stroke-linejoin="round"/><path d="M156.556 90.667s-17.168-10.133-1.172-21.002c15.996-10.87 26.66-.737 26.66-.737s10.297 2.892 10.481 8.723c0 0 4.596 5.094 3.125 9.884 0 0 5.753 15.107-9.718 19.897" stroke="#1E212C" stroke-width="1.5" stroke-linecap="round" stroke-linejoin="round"/><path d="M185.93 109.643a12.17 12.17 0 005.673-2.211" stroke="#00F0B5" stroke-width="1.5" stroke-linecap="round" stroke-linejoin="round"/><path d="M185.813 113.236v13.519c-.05 5.064 3.578 9.414 8.559 10.264 1.875.289 3.741.009 5.23-1.399 4.872-4.606 2.482-15.568-1.747-18.239a7.491 7.491 0 00-4.321-7.277" stroke="#1E212C" stroke-width="1.5" stroke-linecap="round" stroke-linejoin="round"/><path d="M138.63 223.376L67.128 345.092s86.844 32.412 162.014 18.417V231.236" fill="#00F0B5"/><path d="M67.128 345.094s86.843 32.412 162.013 18.416m-16.422-228.343s26 22.607 29.309 51.9c0 0 4.917-76.319 6.572-79.635 1.655-3.316 4.412 12.441 4.412 12.441s20.409 6.904 9.929 21.827c0 0 28.375 88.431-33.801 97.274m-72.586-112.709s-21.764 11.013-39.047 50.808c0 0-28.683-46.492-48.908-53.46-20.225-6.969-24.27-7.78-25.005-6.638-.736 1.143 10.296 9.249 10.296 9.249s-5.516 17.222 11.4 20.586c0 0 2.606 73.742 34.766 84.059 32.16 10.317 61.01-32.057 61.01-32.057" stroke="#1E212C" stroke-width="1.5" stroke-linecap="round" stroke-linejoin="round"/><path d="M295.606 281.859a10.394 10.394 0 01-8.649-4.629 10.433 10.433 0 012.048-13.846 10.384 10.384 0 0113.952.688 10.429 10.429 0 012.253 11.354 10.415 10.415 0 01-3.829 4.675 10.377 10.377 0 01-5.775 1.758zm0-17.735a7.278 7.278 0 00-4.626 1.657 7.314 7.314 0 00-1.806 9.091 7.293 7.293 0 003.641 3.305 7.275 7.275 0 008.851-2.693 7.31 7.31 0 001.191-4.776 7.304 7.304 0 00-2.103-4.448 7.208 7.208 0 00-5.148-2.136z" fill="#D7DADD"/><path d="M311.555 289.483a1.524 1.524 0 01-1.123-.475l-9.678-10.172a1.542 1.542 0 01-.512-1.126 1.557 1.557 0 011.011-1.477 1.542 1.542 0 011.725.467l9.689 10.173a1.534 1.534 0 01-.259 2.359 1.53 1.53 0 01-.853.251z" fill="#D7DADD"/><path d="M119.98 63.115L36.55 76.813a.514.514 0 01-.591-.425L25.818 14.374a.516.516 0 01.424-.592L109.672.083a.524.524 0 01.591.426l10.142 62.014a.52.52 0 01-.425.592zM36.892 75.712l82.413-13.532-9.974-60.995-82.414 13.531 9.975 60.996z" fill="#787A80"/><path d="M43.484 63.14l-.101.017c-7.324.962-10.463-5.663-10.495-5.731a.535.535 0 01.673-.721.533.533 0 01.298.28c.115.252 2.87 6 9.428 5.142l.03-.005c3.212-.527 4.067-9.523 4.805-17.516.733-8.275 1.538-16.112 4.714-17.428a5.027 5.027 0 014-.103c3.252 1.38 5.222 6.409 7.559 12.214a81.997 81.997 0 004.314 9.663c2.57 4.617 6.38 7.117 9.51 6.227 3.878-1.107 5.96-7.137 5.543-16.132-1.18-25.65 7.087-29.84 10.67-30.45l.132-.021c8.983-1.475 14.417 2.598 19.368 14.498a.542.542 0 01-.002.405.527.527 0 01-.976-.004C108.163 11.978 103.215 8.201 94.701 9.6l-.122.02c-6.96 1.143-10.63 12.2-9.802 29.387.45 9.638-1.844 15.9-6.29 17.164-3.577 1.037-7.88-1.675-10.687-6.714a84.133 84.133 0 01-4.368-9.737c-2.13-5.369-4.137-10.434-7.008-11.656a3.988 3.988 0 00-3.206.108c-2.618 1.089-3.39 9.318-4.072 16.57-.917 9.131-1.689 17.747-5.662 18.4z" fill="#787A80"/><path d="M108.083 39.163l-11.655 1.913a.514.514 0 01-.5-.81c.079-.11.2-.186.334-.208l11.654-1.913a.515.515 0 01.502.81.516.516 0 01-.335.208zm.785 4.815l-11.654 1.914a.514.514 0 01-.592-.426.517.517 0 01.425-.592l11.654-1.914a.515.515 0 01.167 1.018zm-5.047 5.752l-5.822.957a.514.514 0 01-.591-.426.516.516 0 01.424-.593l5.822-.955a.515.515 0 01.167 1.018zm-56.34-32.337l-11.654 1.914a.514.514 0 01-.591-.426.517.517 0 01.424-.592l11.655-1.914a.514.514 0 01.498.808.525.525 0 01-.332.21zm.797 4.867l-11.654 1.914a.514.514 0 01-.592-.426.516.516 0 01.425-.592l11.655-1.914a.524.524 0 01.59.426.516.516 0 01-.424.592zm-5.051 5.732l-5.822.956a.514.514 0 01-.591-.425.516.516 0 01.425-.593l5.822-.956a.514.514 0 01.501.81.515.515 0 01-.335.208z" fill="#D7DADD"/><path d="M45.87 271.011L-.003 254.77l11.984-33.988.833.295-11.69 33.152 45.042 15.946-.294.836z" fill="#00F0B5"/><path d="M19.074 242.376l-5.393-1.909-5.708 16.187 5.393 1.909 5.708-16.187zm13.492-3.163l-5.394-1.909-8.196 23.246 5.393 1.909 8.197-23.246zm13.847-.753l-5.393-1.909-9.97 28.274 5.393 1.909 9.97-28.274z" fill="#00F0B5"/></svg>